<svg version="1.1" xmlns="http://www.w3.org/2000/svg" width="500" height="500">

<path d="M0 0 C10.12380756 6.62927312 13.10000226 16.32906252 16.625 27.3125 C17.18716747 29.01437546 17.75101114 30.71569801 18.31640625 32.41650391 C19.79753692 36.88902322 21.25449146 41.36902266 22.70440674 45.85174561 C23.78878839 49.19837306 24.88402675 52.54138452 25.97999573 55.88423157 C28.52649967 63.65190922 31.05254334 71.42609266 33.5703125 79.203125 C38.09185578 93.16346472 42.67467087 107.10368041 47.25429916 121.04504013 C49.29921675 127.27065679 51.3430653 133.49662452 53.38671875 139.72265625 C53.60901217 140.39986032 53.83130558 141.0770644 54.06033516 141.77478981 C58.3027261 154.69994757 62.53038065 167.62989066 66.75 180.5625 C67.06839844 181.53832031 67.38679687 182.51414063 67.71484375 183.51953125 C68.03324219 184.49535156 68.35164062 185.47117188 68.6796875 186.4765625 C69.32420749 188.45182659 69.96873876 190.427087 70.61328125 192.40234375 C70.93253571 193.38073212 71.25179016 194.35912048 71.58071899 195.36715698 C75.5259558 207.45540203 79.481672 219.5402176 83.4375 231.625 C83.81256683 232.7708255 84.18763367 233.916651 84.57406616 235.09719849 C86.47603677 240.90760467 88.37812605 246.717972 90.28027344 252.52832031 C94.41606511 265.16185418 98.55036629 277.79587592 102.68493652 290.42980957 C103.80817747 293.86206361 104.93142848 297.29431437 106.0546875 300.7265625 C106.42553467 301.859729 106.79638184 302.99289551 107.1784668 304.16040039 C109.82949047 312.26071855 112.48106883 320.36085502 115.1328125 328.4609375 C119.24187695 341.01278017 123.3493844 353.56513174 127.45593262 366.11779785 C128.57362304 369.53399736 129.69157612 372.95011083 130.80957031 376.36621094 C132.63391711 381.94094946 134.45719084 387.51603796 136.27972412 393.09136963 C136.95374852 395.15279843 137.62809101 397.21412325 138.30279541 399.27532959 C139.82782593 403.93463301 141.34849098 408.5952216 142.85742188 413.25976562 C143.99598051 416.77743129 145.16169807 420.28449546 146.34570312 423.78710938 C146.90257718 425.46737057 147.45922811 427.14770574 148.015625 428.828125 C148.27398132 429.57350525 148.53233765 430.3188855 148.79852295 431.08685303 C151.17414531 438.352074 151.66840069 445.45383388 148.58984375 452.58984375 C144.70268639 459.81729602 139.2141209 463.7019227 131.5625 466.5 C127.71117515 467.10918838 123.97727013 467.08887077 120.0859375 466.98828125 C119.03467682 466.98120651 117.98341614 466.97413177 116.90029907 466.96684265 C113.57860831 466.93909827 110.25867179 466.87639651 106.9375 466.8125 C104.67059745 466.78739139 102.40366819 466.76458275 100.13671875 466.74414062 C94.6113917 466.68933764 89.08707122 466.60591475 83.5625 466.5 C83.15837891 467.42039062 83.15837891 467.42039062 82.74609375 468.359375 C80.86236023 471.76625939 78.11787537 473.24292085 74.5625 474.5 C68.71645347 475.52653793 64.01057947 475.33774438 59.0625 471.875 C54.56025573 467.91708444 52.47457207 464.13095039 52.0625 458.125 C52.3046218 451.59871681 55.58999623 447.42439392 60.125 443 C65.29727668 440.74300654 70.01697765 440.5154164 75.5625 441.5 C78.68492701 443.06598786 81.24801083 444.87237406 83.5625 447.5 C83.5625 448.16 83.5625 448.82 83.5625 449.5 C89.75605797 449.45587984 95.94859333 449.38608 102.14160156 449.29248047 C104.2482896 449.26425721 106.3550838 449.24304944 108.46191406 449.22900391 C111.4907878 449.20759339 114.51838331 449.1609524 117.546875 449.109375 C118.95957672 449.10753204 118.95957672 449.10753204 120.40081787 449.10565186 C124.23577927 449.01977946 126.85599939 448.88776695 130.25097656 447.02441406 C132.72250141 442.26723481 130.95310341 436.45442607 129.47346497 431.48013306 C129.02494585 430.10308615 128.56696047 428.72909579 128.10083008 427.35791016 C127.8497776 426.59570663 127.59872513 425.83350311 127.340065 425.04820251 C126.51240541 422.54229944 125.67228243 420.04076863 124.83203125 417.5390625 C124.24318918 415.76413166 123.65516795 413.98892832 123.06791687 412.21347046 C121.82428938 408.45895992 120.57527593 404.70630449 119.32177734 400.95507812 C117.36201059 395.09013491 115.4142532 389.2212502 113.46875 383.3515625 C111.2411739 376.63280697 109.01139532 369.91479413 106.77797508 363.19797897 C102.82678414 351.31343446 98.92025478 339.41523156 95.0625 327.5 C94.02939238 324.3148616 92.99533542 321.13003208 91.9609375 317.9453125 C91.70208267 317.14814819 91.44322784 316.35098389 91.17652893 315.52966309 C87.04018735 302.80274445 82.85952052 290.09025721 78.6875 277.375 C76.96074471 272.1120424 75.23413452 266.84903723 73.5078125 261.5859375 C73.29615196 260.94064339 73.08449142 260.29534927 72.86641693 259.63050079 C68.43327181 246.11399497 64.0178153 232.59174314 59.6060791 219.0682373 C53.68482356 200.91920154 47.73735067 182.77881026 41.78611374 164.63959122 C36.38007211 148.16172116 30.98548095 131.68025887 25.625 115.1875 C20.06002027 98.07131921 14.46971973 80.96344687 8.86569214 63.86001587 C7.9219522 60.9795626 6.9790452 58.09883886 6.03689575 55.21786499 C4.92146568 51.80719937 3.80423655 48.39712802 2.68570518 44.98747826 C2.07598741 43.12747737 1.46799323 41.26691175 0.86006165 39.40632629 C-0.91089668 34.01370559 -2.70928241 28.63163967 -4.59326172 23.27734375 C-5.05452957 21.96431274 -5.05452957 21.96431274 -5.52511597 20.62475586 C-6.35098606 18.33935679 -6.35098606 18.33935679 -8.4375 16.5 C-12.49866747 15.98958818 -12.49866747 15.98958818 -16.00817871 17.7311554 C-17.67051648 19.7883676 -18.45721959 21.63094007 -19.36914062 24.11401367 C-19.72333069 25.06557343 -20.07752075 26.01713318 -20.44244385 26.99752808 C-21.01234039 28.56689621 -21.01234039 28.56689621 -21.59375 30.16796875 C-22.00381287 31.27592804 -22.41387573 32.38388733 -22.83636475 33.52542114 C-23.97113438 36.59512255 -25.09866132 39.66737711 -26.22358704 42.74069595 C-27.43396709 46.04134031 -28.65412704 49.33836147 -29.87402344 52.63549805 C-30.38154531 54.0075172 -30.88905246 55.3795418 -31.39654541 56.75157166 C-31.65194344 57.44202009 -31.90734146 58.13246853 -32.17047882 58.84383965 C-32.96293365 60.98747041 -33.75427729 63.13150854 -34.54534912 65.27565002 C-38.32664828 75.52126572 -42.14360338 85.75310071 -45.984375 95.9765625 C-46.25781927 96.70447054 -46.53126354 97.43237858 -46.812994 98.18234444 C-48.20663084 101.89171545 -49.60080999 105.60088238 -50.99520874 109.30996704 C-60.59651744 134.85184192 -70.136285 160.41610012 -79.625 186 C-87.52092724 207.28884265 -95.44243385 228.56769 -103.41888428 249.82650757 C-104.67085527 253.16350273 -105.92137256 256.50104035 -107.17140198 259.83876324 C-111.62293641 271.723699 -116.08517163 283.60403289 -120.62161255 295.45690918 C-122.35088461 299.97689847 -124.07172526 304.50007565 -125.79199219 309.02349854 C-126.96802766 312.10375837 -128.15759112 315.17855754 -129.34765625 318.25341797 C-130.04630658 320.08923919 -130.74426772 321.9253229 -131.44140625 323.76171875 C-131.92529564 324.99273064 -131.92529564 324.99273064 -132.41896057 326.24861145 C-133.95873134 330.35154537 -134.99270221 333.18787142 -133.4375 337.5 C-133.1075 338.16 -132.7775 338.82 -132.4375 339.5 C-131.77723566 345.32331497 -132.02888378 350.58506987 -134.9765625 355.73828125 C-138.63448612 360.14930679 -143.44701146 362.18571234 -149 363.0625 C-154.9753977 362.08470765 -159.0724699 360.21503782 -162.875 355.4375 C-165.70382157 350.11931544 -166.10360906 345.43022091 -165.4375 339.5 C-163.23828649 335.10157298 -160.54000213 332.20164774 -156.4375 329.5 C-153.625 328.75 -153.625 328.75 -151.4375 328.5 C-151.20023193 327.26967041 -150.96296387 326.03934082 -150.71850586 324.77172852 C-149.35926398 318.68486261 -147.15983494 312.97023922 -144.94140625 307.15234375 C-144.24090707 305.29236296 -143.54040811 303.43238209 -142.83991718 301.57239819 C-142.08749756 299.57812621 -141.33207171 297.58501726 -140.57574463 295.59222412 C-138.96596957 291.35044998 -137.36492713 287.10541145 -135.76513672 282.85986328 C-133.77878364 277.59007098 -131.79053193 272.32100304 -129.79974747 267.05288315 C-124.14343941 252.08430615 -118.52234829 237.10254023 -112.90425491 222.11958694 C-112.05870008 219.86486729 -111.21284971 217.61025872 -110.36691284 215.35568237 C-101.88688717 192.75384116 -93.45859266 170.13314407 -85.0625 147.5 C-75.12644716 120.71600856 -65.14721629 93.94899309 -55.08540344 67.21191406 C-52.61811162 60.65233026 -50.16365017 54.08811156 -47.71922302 47.51997375 C-46.14647042 43.29678964 -44.56780922 39.07582917 -42.98806763 34.85525513 C-42.25609467 32.89538664 -41.52674936 30.93453441 -40.80026245 28.97262573 C-39.8100299 26.2993913 -38.81043796 23.62983775 -37.80859375 20.9609375 C-37.52415405 20.18564194 -37.23971436 19.41034637 -36.94665527 18.61155701 C-34.68521067 12.63332764 -31.98374863 7.4395716 -27 3.25 C-26.44441406 2.77046875 -25.88882813 2.2909375 -25.31640625 1.796875 C-18.36691105 -2.99986597 -7.67893419 -3.40282182 0 0 Z " fill="#030303" transform="translate(253.4375,8.5)" data-index="1" style="opacity: 1; fill: rgb(4, 4, 4); stroke: rgb(4, 4, 4);"></path>
<path d="M0 0 C4.51846921 3.04505534 8.13526194 6.71828583 9.875 11.9375 C10.24326224 17.55349916 10.09056007 21.11415989 6.875 25.9375 C4.47368909 28.36571636 2.0138176 30.47449924 -1.18362427 31.77445984 C-3.85116281 33.37252991 -4.22373887 34.88633824 -5.24951172 37.79614258 C-5.61948776 38.82267441 -5.98946381 39.84920624 -6.37065125 40.90684509 C-6.95674919 42.60231224 -6.95674919 42.60231224 -7.5546875 44.33203125 C-7.97768631 45.51773209 -8.40068512 46.70343292 -8.83650208 47.92506409 C-9.75691159 50.50506077 -10.66814306 53.0880503 -11.57235718 55.67376709 C-13.01056941 59.78637821 -14.46809298 63.89197097 -15.92895508 67.99658203 C-17.45228505 72.27985998 -18.97401584 76.5636793 -20.48866272 80.85003662 C-23.98268723 90.73779685 -27.51547215 100.61083365 -31.08203125 110.47265625 C-31.3241333 111.14225939 -31.56623535 111.81186253 -31.81567383 112.50175667 C-33.01681601 115.82349941 -34.21856663 119.14502155 -35.42071533 122.46640015 C-43.06776059 143.59571086 -50.63004751 164.75386175 -58.125 185.9375 C-47.12849773 185.92262957 -36.13245148 185.88105593 -25.13618946 185.80540943 C-20.03010499 185.77112186 -14.92432028 185.74602669 -9.81811523 185.74194336 C-4.89006661 185.73766422 0.03730561 185.70923336 4.9651432 185.66406822 C6.84495415 185.65108092 8.72484599 185.6467899 10.60469627 185.65134621 C13.23875288 185.65624353 15.87082593 185.63020011 18.50463867 185.59692383 C19.28147507 185.60554947 20.05831146 185.61417511 20.85868835 185.62306213 C24.90996296 185.53729038 26.63860213 185.13836089 29.77070618 182.47709656 C30.46512314 181.63902969 31.1595401 180.80096283 31.875 179.9375 C36.04474265 177.29346779 40.07669866 177.41085717 44.875 177.9375 C50.54976113 179.90184039 54.18900331 183.56550662 56.875 188.9375 C57.37782832 194.44388223 57.58821529 199.33989776 55.3125 204.4375 C50.58700783 209.28415863 47.01396017 211.16434266 40.3125 211.4375 C34.10208558 211.21569948 31.22853724 209.29103724 26.875 204.9375 C25.01846373 204.63335231 25.01846373 204.63335231 22.87174988 204.67921448 C22.03481094 204.67238647 21.19787201 204.66555847 20.33557129 204.65852356 C19.41554321 204.66107651 18.49551514 204.66362946 17.54760742 204.66625977 C16.57998978 204.66103302 15.61237213 204.65580627 14.61543274 204.65042114 C12.50922969 204.64016106 10.40300113 204.63439726 8.29677391 204.63253975 C4.9640294 204.62888824 1.63158573 204.61219439 -1.70109558 204.59178162 C-11.17835906 204.53625602 -20.6556676 204.50568597 -30.13305664 204.48120117 C-35.92557513 204.46533167 -41.71788147 204.43511561 -47.51029015 204.39643669 C-49.71946651 204.38477779 -51.92868083 204.37885626 -54.13788795 204.37875557 C-57.2286252 204.37856366 -60.31877737 204.36030599 -63.40942383 204.33813477 C-64.7803569 204.34500053 -64.7803569 204.34500053 -66.1789856 204.352005 C-70.96448191 204.29739213 -74.27686746 204.10800363 -78.125 200.9375 C-80.45648296 197.44027556 -80.25874481 195.70659859 -79.69332886 191.64352417 C-78.54853506 186.19273694 -76.55313731 181.03191104 -74.62890625 175.81640625 C-74.16322599 174.53200696 -73.69845057 173.2472793 -73.23451233 171.96224976 C-71.9888739 168.51942649 -70.73129707 165.08107811 -69.47150421 161.64341354 C-68.15053197 158.03196638 -66.84107673 154.41634984 -65.53076172 150.80102539 C-63.40678081 144.9439994 -61.27727137 139.08901524 -59.14404297 133.23535156 C-56.47552931 125.91061868 -53.82713116 118.5787897 -51.19140625 111.2421875 C-50.81476837 110.19400345 -50.43813049 109.1458194 -50.05007935 108.06587219 C-48.58968308 104.00018488 -47.13016192 99.93418375 -45.67077637 95.86813354 C-41.96218066 85.539469 -38.23667995 75.21788734 -34.44299316 64.92012024 C-32.82373363 60.52343489 -31.21180632 56.12407548 -29.60003662 51.72463989 C-28.83162006 49.63452022 -28.05926634 47.54584335 -27.28277588 45.45870972 C-26.21670725 42.59307929 -25.16368245 39.72296541 -24.11328125 36.8515625 C-23.79348801 36.0030925 -23.47369476 35.1546225 -23.14421082 34.28044128 C-22.86112564 33.49905289 -22.57804047 32.71766449 -22.28637695 31.91259766 C-22.03644485 31.23734039 -21.78651276 30.56208313 -21.52900696 29.86636353 C-20.84464643 26.59899887 -22.08932501 24.04452497 -23.125 20.9375 C-23.61916324 15.77713961 -23.75045242 11.34476795 -21.625 6.5625 C-15.19695935 -0.18694268 -9.21592779 -3.13341545 0 0 Z " fill="#040404" transform="translate(223.125,236.0625)" data-index="2" style="fill: rgb(4, 4, 4); stroke: rgb(4, 4, 4);"></path>
</svg>